<?xml version="1.0" encoding="UTF-8" standalone="no"?>
<!-- Created with Inkscape (http://www.inkscape.org/) -->

<svg
   xmlns:dc="http://purl.org/dc/elements/1.1/"
   xmlns:cc="http://creativecommons.org/ns#"
   xmlns:rdf="http://www.w3.org/1999/02/22-rdf-syntax-ns#"
   xmlns:svg="http://www.w3.org/2000/svg"
   xmlns="http://www.w3.org/2000/svg"
   xmlns:sodipodi="http://sodipodi.sourceforge.net/DTD/sodipodi-0.dtd"
   xmlns:inkscape="http://www.inkscape.org/namespaces/inkscape"
   width="48px"
   height="48px"
   viewBox="0 0 48 48"
   version="1.1"
   id="SVGRoot"
   inkscape:version="0.92.3 (2405546, 2018-03-11)"
   sodipodi:docname="causal_logic_event_and.svg">
  <sodipodi:namedview
     id="base"
     pagecolor="#ffffff"
     bordercolor="#666666"
     borderopacity="1.0"
     inkscape:pageopacity="0.0"
     inkscape:pageshadow="2"
     inkscape:zoom="11.42"
     inkscape:cx="-3.7583187"
     inkscape:cy="32.271082"
     inkscape:document-units="px"
     inkscape:current-layer="layer1"
     showgrid="false"
     inkscape:window-width="1752"
     inkscape:window-height="987"
     inkscape:window-x="-8"
     inkscape:window-y="-8"
     inkscape:window-maximized="1"
     inkscape:grid-bbox="true" />
  <defs
     id="defs10" />
  <metadata
     id="metadata13">
    <rdf:RDF>
      <cc:Work
         rdf:about="">
        <dc:format>image/svg+xml</dc:format>
        <dc:type
           rdf:resource="http://purl.org/dc/dcmitype/StillImage" />
        <dc:title />
      </cc:Work>
    </rdf:RDF>
  </metadata>
  <g
     id="layer1"
     inkscape:groupmode="layer"
     inkscape:label="Layer 1">
    <rect
       style="fill:#c0bfc3;fill-opacity:1;fill-rule:nonzero;stroke:#000000;stroke-width:2.0737884;stroke-linecap:round;stroke-linejoin:round;stroke-miterlimit:4;stroke-dasharray:none;stroke-opacity:1;paint-order:markers stroke fill"
       id="rect28"
       width="31.597128"
       height="31.597128"
       x="18.266397"
       y="-15.850576"
       transform="rotate(45)" />
    <g
       aria-label="🅴
AND"
       transform="matrix(1.0689455,0,0,1.0494003,-0.85978623,-2.1774151)"
       style="font-style:normal;font-variant:normal;font-weight:normal;font-stretch:normal;font-size:13.79560661px;line-height:1;font-family:Roboto;-inkscape-font-specification:'Roboto, Normal';font-variant-ligatures:normal;font-variant-caps:normal;font-variant-numeric:normal;text-align:center;letter-spacing:0px;word-spacing:0px;writing-mode:lr-tb;text-anchor:middle;fill:#000000;fill-opacity:1;stroke:none;stroke-width:0.86222541"
       id="text32">
      <path
         d="m 25.916345,16.843156 h -3.19302 v -2.708004 h 2.795577 v -0.80836 H 22.723325 V 10.753515 H 25.7412 V 9.9316826 h -3.920543 v 7.7333054 h 4.095688 z m 2.71474,-0.700579 q 0,1.192331 -0.511961,1.785127 -0.599533,0.700579 -1.973744,0.700579 h -4.688484 q -1.380948,0 -1.980481,-0.700579 -0.505225,-0.592796 -0.505225,-1.785127 v -4.688484 q 0,-1.185594 0.505225,-1.7851272 0.599533,-0.7005781 1.980481,-0.7005781 h 4.688484 q 1.374211,0 1.973744,0.7005781 0.511961,0.5927972 0.511961,1.7851272 z"
         style="font-style:normal;font-variant:normal;font-weight:normal;font-stretch:normal;font-size:13.79600048px;font-family:'STIX Two Text';-inkscape-font-specification:'STIX Two Text, Normal';font-variant-ligatures:normal;font-variant-caps:normal;font-variant-numeric:normal;font-feature-settings:normal;text-align:center;writing-mode:lr-tb;text-anchor:middle;stroke-width:0.86222541"
         id="path35"
         inkscape:connector-curvature="0" />
      <path
         d="m 16.398124,30.156817 h -4.109043 l -0.929586,2.526051 h -1.353964 l 3.792445,-9.807815 h 1.138407 l 3.731819,9.807815 h -1.353963 z m -3.698138,-1.111463 h 3.300706 L 14.38402,24.579296 H 14.3436 Z"
         style="stroke-width:0.86222541"
         id="path37"
         inkscape:connector-curvature="0" />
      <path
         d="m 27.445388,32.682868 h -1.327019 l -4.722031,-7.58489 -0.04042,0.01347 v 7.571417 H 20.028899 V 22.87505 h 1.327019 l 4.722031,7.571417 0.04042,-0.01347 v -7.557945 h 1.327019 z"
         style="stroke-width:0.86222541"
         id="path39"
         inkscape:connector-curvature="0" />
      <path
         d="m 29.863661,32.682868 v -9.807815 h 3.011053 q 1.926535,0 3.091886,1.18556 1.165352,1.178824 1.165352,3.05147 v 1.340491 q 0,1.879382 -1.165352,3.058206 -1.165351,1.172088 -3.091886,1.172088 z m 1.327019,-8.763713 v 7.726348 h 1.684034 q 1.360699,0 2.142091,-0.895906 0.788128,-0.895907 0.788128,-2.297023 v -1.353963 q 0,-1.387644 -0.788128,-2.28355 -0.781392,-0.895906 -2.142091,-0.895906 z"
         style="stroke-width:0.86222541"
         id="path41"
         inkscape:connector-curvature="0" />
    </g>
  </g>
</svg>
